<svg id="Laag_1" data-name="Laag 1" xmlns="http://www.w3.org/2000/svg" xmlns:xlink="http://www.w3.org/1999/xlink" viewBox="0 0 221 77"><defs><style>.cls-1{fill:none;}.cls-2{clip-path:url(#clip-path);}.cls-3{fill:#fff;}</style><clipPath id="clip-path"><rect class="cls-1" width="221" height="76.55"/></clipPath></defs><g class="cls-2"><path class="cls-3" d="M34.25,19h6.22l.16,3.08a11.15,11.15,0,0,1,3-2.33,8.08,8.08,0,0,1,3.87-1,6.64,6.64,0,0,1,1.18.1l-.47,6.46a9,9,0,0,0-2.31-.27,6.12,6.12,0,0,0-3,.77,4.76,4.76,0,0,0-2,1.87v18H34.25Z"/><path class="cls-3" d="M56.28,44.42a12.46,12.46,0,0,1-4.77-5,14.32,14.32,0,0,1-1.66-6.87,14.66,14.66,0,0,1,1.66-6.92,12.39,12.39,0,0,1,4.77-5,14,14,0,0,1,7.34-1.85A14,14,0,0,1,71,20.64a12.46,12.46,0,0,1,4.77,5,14.54,14.54,0,0,1,1.66,6.92,14.32,14.32,0,0,1-1.66,6.87,12.46,12.46,0,0,1-4.77,5,14,14,0,0,1-7.34,1.85A14,14,0,0,1,56.28,44.42Zm12.46-5.81a9.3,9.3,0,0,0,1.85-6,9.42,9.42,0,0,0-1.85-6.1,6.85,6.85,0,0,0-10.24,0,9.46,9.46,0,0,0-1.85,6.1,9.28,9.28,0,0,0,1.85,6,6.91,6.91,0,0,0,10.24,0Z"/><path class="cls-3" d="M116.57,45.8a24.18,24.18,0,0,1-4.37-1.48l.59-5.6a23.11,23.11,0,0,0,4.21,2,12.64,12.64,0,0,0,4,.66q4.07,0,4.07-2.64a2.57,2.57,0,0,0-1.06-2.2,18.27,18.27,0,0,0-3.87-1.82,16.41,16.41,0,0,1-5.84-3.26,6.6,6.6,0,0,1-1.88-4.94,6.67,6.67,0,0,1,.67-3.1,6.8,6.8,0,0,1,2-2.47,11.27,11.27,0,0,1,7.24-2.14,17,17,0,0,1,8.3,2.06l-.59,5.6a21.93,21.93,0,0,0-3.83-2.11,9.79,9.79,0,0,0-3.78-.74,4.4,4.4,0,0,0-2.65.69,2.31,2.31,0,0,0-.72.86,2.27,2.27,0,0,0-.22,1.09,2.45,2.45,0,0,0,.55,1.64A5.12,5.12,0,0,0,121,29c.67.34,1.8.8,3.37,1.4A15.55,15.55,0,0,1,130,33.66a6.54,6.54,0,0,1,1.72,4.74A6.84,6.84,0,0,1,129,44.21q-2.73,2.05-7.77,2.06A21.06,21.06,0,0,1,116.57,45.8Z"/><path class="cls-3" d="M141.15,44.42a12.46,12.46,0,0,1-4.77-5,14.32,14.32,0,0,1-1.66-6.87,14.54,14.54,0,0,1,1.66-6.92,12.46,12.46,0,0,1,4.77-5,15.49,15.49,0,0,1,14.68,0,12.52,12.52,0,0,1,4.77,5,14.78,14.78,0,0,1,1.66,6.92,14.36,14.36,0,0,1-1.66,6.88,12.5,12.5,0,0,1-4.77,5,15.49,15.49,0,0,1-14.68,0Zm12.47-5.81a9.26,9.26,0,0,0,1.85-6,9.44,9.44,0,0,0-1.85-6.1,6.85,6.85,0,0,0-10.24,0,9.46,9.46,0,0,0-1.85,6.1,9.26,9.26,0,0,0,1.85,6,6.91,6.91,0,0,0,10.24,0Z"/><path class="cls-3" d="M167.6,44.35a7.28,7.28,0,0,1-1.71-5V3.66h6.65v33a12.87,12.87,0,0,0,.24,3,1.35,1.35,0,0,0,.85,1.06,8.41,8.41,0,0,0,2.12.18l-.58,5.39h-2.41A6.59,6.59,0,0,1,167.6,44.35Z"/><path class="cls-3" d="M180,8.75h6.64V15.3H180Zm0,10.57h6.64V45.75H180Z"/><path class="cls-3" d="M217.67,19V0h-6.5v19H204a13.91,13.91,0,0,0-7.62,2.27,13.64,13.64,0,0,0-5,6.07,13.38,13.38,0,0,0,3,14.73,13.8,13.8,0,0,0,21.09-2,13.38,13.38,0,0,0,2.31-7.51V25.46H221V19Zm-6.5,13.52A7,7,0,0,1,210,36.51a7.28,7.28,0,0,1-11.09,1.08,7.05,7.05,0,0,1-2-3.64,7,7,0,0,1,.41-4.11A7.13,7.13,0,0,1,200,26.66a7.31,7.31,0,0,1,4-1.2h7.2Z"/><path class="cls-3" d="M27.42,19.05V0H20.91v19h-7.2a13.84,13.84,0,0,0-7.62,2.28A13.56,13.56,0,0,0,1,27.4,13.37,13.37,0,0,0,4,42.14a13.78,13.78,0,0,0,7,3.7A13.92,13.92,0,0,0,19,45.07a13.75,13.75,0,0,0,6.16-5,13.43,13.43,0,0,0,2.31-7.51V25.46h3.31V19.05ZM20.91,32.56a7,7,0,0,1-1.21,3.95,7.19,7.19,0,0,1-3.24,2.62,7.38,7.38,0,0,1-4.16.4,7.2,7.2,0,0,1-3.68-1.94A7,7,0,0,1,9.71,26.66a7.25,7.25,0,0,1,4-1.2h7.2Z"/><path class="cls-3" d="M96,19a13.84,13.84,0,0,0-9.69,4,13.45,13.45,0,0,0-4,9.55v7.1H78.59v6.42H82.3V64.13h6.51V46.06H96a13.84,13.84,0,0,0,9.7-4,13.4,13.4,0,0,0,0-19.12A13.79,13.79,0,0,0,96,19Zm0,20.62h-7.2v-7.1A7.07,7.07,0,0,1,90,28.59a7.27,7.27,0,0,1,11.09-1.07A7,7,0,0,1,100,38.45,7.24,7.24,0,0,1,96,39.64Z"/><path class="cls-3" d="M140,63.74V56.35h4.79v1.31h-3.39v1.57H144v1.31h-2.63v1.89h3.5v1.31Z"/><path class="cls-3" d="M147.15,63.74,149.77,60l-2.49-3.6h1.52l1.72,2.52,1.72-2.52h1.52L151.27,60l2.62,3.79h-1.52l-1.85-2.69-1.85,2.69Z"/><path class="cls-3" d="M156.62,63.74V56.35h2.66a3.76,3.76,0,0,1,1.45.26,1.81,1.81,0,0,1,.9.78,2.69,2.69,0,0,1,.31,1.36,2.8,2.8,0,0,1-.31,1.36,1.82,1.82,0,0,1-.89.8,3.51,3.51,0,0,1-1.43.28H158v2.56ZM158,60.05h1.16a1.53,1.53,0,0,0,1-.31,1.36,1.36,0,0,0,.28-.46,2,2,0,0,0,0-1,1.2,1.2,0,0,0-.29-.45,1.64,1.64,0,0,0-1.07-.31H158Z"/><path class="cls-3" d="M164.92,63.74V56.35h4.79v1.31h-3.38v1.57H169v1.31h-2.63v1.89h3.5v1.31Z"/><path class="cls-3" d="M172.92,63.74V56.35h2.74a3.48,3.48,0,0,1,1.35.25,1.9,1.9,0,0,1,.92.73,2.24,2.24,0,0,1,.32,1.26,2.1,2.1,0,0,1-.35,1.29,2.61,2.61,0,0,1-.92.76l1.69,3.1h-1.53L175.69,61h-1.38v2.74Zm1.38-3.87h1a1.65,1.65,0,0,0,1.17-.34,1.15,1.15,0,0,0,.26-.4,1.5,1.5,0,0,0,.08-.47,1.24,1.24,0,0,0-.08-.46,1,1,0,0,0-.25-.4,1.61,1.61,0,0,0-1.13-.32H174.3Z"/><path class="cls-3" d="M181.54,63.74V56.35h1.38v7.39Z"/><path class="cls-3" d="M186.5,63.74V56.35h4.79v1.31h-3.41v1.57h2.63v1.31h-2.63v1.89h3.51v1.31Z"/><path class="cls-3" d="M194.49,63.74V56.35h1.35l3.2,4.77V56.35h1.38v7.39h-1.13l-3.42-5.06v5.06Z"/><path class="cls-3" d="M207.37,63.89a4.14,4.14,0,0,1-2-.48A3.41,3.41,0,0,1,204,62.07a4.07,4.07,0,0,1-.48-2,3.9,3.9,0,0,1,.5-2,3.49,3.49,0,0,1,1.38-1.34,4.13,4.13,0,0,1,2-.47,3.94,3.94,0,0,1,1.08.12,4.11,4.11,0,0,1,.85.31l-.15,1.29a4.87,4.87,0,0,0-.83-.31,3.81,3.81,0,0,0-1-.12,2.54,2.54,0,0,0-1.32.33,2.08,2.08,0,0,0-.79.9,3.2,3.2,0,0,0-.28,1.32,3.1,3.1,0,0,0,.26,1.31,2,2,0,0,0,.79.9,2.35,2.35,0,0,0,1.29.33,3.15,3.15,0,0,0,1-.12,6.38,6.38,0,0,0,.87-.3l.14,1.28a4.18,4.18,0,0,1-.92.32A4.72,4.72,0,0,1,207.37,63.89Z"/><path class="cls-3" d="M212.42,63.74V56.35h4.79v1.31h-3.39v1.57h2.63v1.31h-2.63v1.89h3.5v1.31Z"/><path class="cls-3" d="M178.94,76.55a4.08,4.08,0,0,1-2-.48,3.41,3.41,0,0,1-1.35-1.34,4.39,4.39,0,0,1,0-4A3.58,3.58,0,0,1,177,69.34a4.07,4.07,0,0,1,2-.47,4.44,4.44,0,0,1,1.09.12,4.33,4.33,0,0,1,.85.31l-.16,1.29a4.77,4.77,0,0,0-.82-.31,4,4,0,0,0-1-.12,2.48,2.48,0,0,0-1.31.33,2,2,0,0,0-.8.9,3.2,3.2,0,0,0-.28,1.32,3.12,3.12,0,0,0,.28,1.31,2,2,0,0,0,.78.91,2.35,2.35,0,0,0,1.29.33,3.19,3.19,0,0,0,1-.12,6.74,6.74,0,0,0,.86-.3l.15,1.29a5.08,5.08,0,0,1-.93.31A4.65,4.65,0,0,1,178.94,76.55Z"/><path class="cls-3" d="M184,76.4V69h1.39v6.2h3.08v1.2Z"/><path class="cls-3" d="M194.37,76.55a3.71,3.71,0,0,1-1.9-.48,3.38,3.38,0,0,1-1.31-1.34,4.51,4.51,0,0,1,0-4,3.44,3.44,0,0,1,1.31-1.34,4.1,4.1,0,0,1,3.81,0,3.58,3.58,0,0,1,1.31,1.34,4.6,4.6,0,0,1,0,4,3.51,3.51,0,0,1-1.31,1.34A3.74,3.74,0,0,1,194.37,76.55Zm0-1.31a2.19,2.19,0,0,0,1.25-.33,2,2,0,0,0,.76-.9,3.56,3.56,0,0,0,0-2.61,2,2,0,0,0-.76-.9,2.6,2.6,0,0,0-2.5,0,2,2,0,0,0-.76.9,3.56,3.56,0,0,0,0,2.61,2,2,0,0,0,.76.9A2.28,2.28,0,0,0,194.37,75.24Z"/><path class="cls-3" d="M204.2,76.55a3.41,3.41,0,0,1-1.74-.41,2.55,2.55,0,0,1-1-1.16,4.2,4.2,0,0,1-.34-1.75V69h1.38v3.88a6.2,6.2,0,0,0,.07,1,2.21,2.21,0,0,0,.25.75,1.23,1.23,0,0,0,.53.48,2.36,2.36,0,0,0,1.77,0,1.15,1.15,0,0,0,.52-.48,2,2,0,0,0,.26-.75,6.2,6.2,0,0,0,.07-1V69h1.38v4.22A4.2,4.2,0,0,1,207,75a2.52,2.52,0,0,1-1,1.16A3.44,3.44,0,0,1,204.2,76.55Z"/><path class="cls-3" d="M210.81,76.4V69h2.8a4,4,0,0,1,1.91.45,3.31,3.31,0,0,1,1.31,1.26,4.45,4.45,0,0,1,.47,2,4.37,4.37,0,0,1-.47,2A3.27,3.27,0,0,1,215.52,76a4.09,4.09,0,0,1-1.91.44Zm1.35-1.19h1.44a2.34,2.34,0,0,0,1.21-.3,1.85,1.85,0,0,0,.73-.86,3.7,3.7,0,0,0,0-2.66,1.85,1.85,0,0,0-.73-.86,2.25,2.25,0,0,0-1.21-.3h-1.44Z"/></g></svg>