<svg fill="none" height="180" viewBox="0 0 414 180" width="414" xmlns="http://www.w3.org/2000/svg" xmlns:xlink="http://www.w3.org/1999/xlink"><filter id="a" color-interpolation-filters="sRGB" filterUnits="userSpaceOnUse" height="73.8644" width="73.8644" x=".303711" y="97.3038"><feFlood flood-opacity="0" result="BackgroundImageFix"/><feColorMatrix in="SourceAlpha" result="hardAlpha" type="matrix" values="0 0 0 0 0 0 0 0 0 0 0 0 0 0 0 0 0 0 127 0"/><feOffset dy="5"/><feGaussianBlur stdDeviation="10"/><feComposite in2="hardAlpha" operator="out"/><feColorMatrix type="matrix" values="0 0 0 0 0 0 0 0 0 0 0 0 0 0 0 0 0 0 0.1 0"/><feBlend in2="BackgroundImageFix" mode="normal" result="effect1_dropShadow_1349:2339"/><feBlend in="SourceGraphic" in2="effect1_dropShadow_1349:2339" mode="normal" result="shape"/></filter><filter id="b" color-interpolation-filters="sRGB" filterUnits="userSpaceOnUse" height="66.5367" width="66.5367" x="4.02051" y="101.021"><feFlood flood-opacity="0" result="BackgroundImageFix"/><feColorMatrix in="SourceAlpha" result="hardAlpha" type="matrix" values="0 0 0 0 0 0 0 0 0 0 0 0 0 0 0 0 0 0 127 0"/><feOffset dy="5"/><feGaussianBlur stdDeviation="10"/><feComposite in2="hardAlpha" operator="out"/><feColorMatrix type="matrix" values="0 0 0 0 0 0 0 0 0 0 0 0 0 0 0 0 0 0 0.1 0"/><feBlend in2="BackgroundImageFix" mode="normal" result="effect1_dropShadow_1349:2339"/><feBlend in="SourceGraphic" in2="effect1_dropShadow_1349:2339" mode="normal" result="shape"/></filter><filter id="c" color-interpolation-filters="sRGB" filterUnits="userSpaceOnUse" height="73.8644" width="73.8644" x="291.304" y="37.3038"><feFlood flood-opacity="0" result="BackgroundImageFix"/><feColorMatrix in="SourceAlpha" result="hardAlpha" type="matrix" values="0 0 0 0 0 0 0 0 0 0 0 0 0 0 0 0 0 0 127 0"/><feOffset dy="5"/><feGaussianBlur stdDeviation="10"/><feComposite in2="hardAlpha" operator="out"/><feColorMatrix type="matrix" values="0 0 0 0 0 0 0 0 0 0 0 0 0 0 0 0 0 0 0.1 0"/><feBlend in2="BackgroundImageFix" mode="normal" result="effect1_dropShadow_1349:2339"/><feBlend in="SourceGraphic" in2="effect1_dropShadow_1349:2339" mode="normal" result="shape"/></filter><filter id="d" color-interpolation-filters="sRGB" filterUnits="userSpaceOnUse" height="66.5367" width="66.5367" x="295.021" y="41.0206"><feFlood flood-opacity="0" result="BackgroundImageFix"/><feColorMatrix in="SourceAlpha" result="hardAlpha" type="matrix" values="0 0 0 0 0 0 0 0 0 0 0 0 0 0 0 0 0 0 127 0"/><feOffset dy="5"/><feGaussianBlur stdDeviation="10"/><feComposite in2="hardAlpha" operator="out"/><feColorMatrix type="matrix" values="0 0 0 0 0 0 0 0 0 0 0 0 0 0 0 0 0 0 0.1 0"/><feBlend in2="BackgroundImageFix" mode="normal" result="effect1_dropShadow_1349:2339"/><feBlend in="SourceGraphic" in2="effect1_dropShadow_1349:2339" mode="normal" result="shape"/></filter><filter id="e" color-interpolation-filters="sRGB" filterUnits="userSpaceOnUse" height="73.8644" width="73.8644" x="339.304" y="97.3038"><feFlood flood-opacity="0" result="BackgroundImageFix"/><feColorMatrix in="SourceAlpha" result="hardAlpha" type="matrix" values="0 0 0 0 0 0 0 0 0 0 0 0 0 0 0 0 0 0 127 0"/><feOffset dy="5"/><feGaussianBlur stdDeviation="10"/><feComposite in2="hardAlpha" operator="out"/><feColorMatrix type="matrix" values="0 0 0 0 0 0 0 0 0 0 0 0 0 0 0 0 0 0 0.1 0"/><feBlend in2="BackgroundImageFix" mode="normal" result="effect1_dropShadow_1349:2339"/><feBlend in="SourceGraphic" in2="effect1_dropShadow_1349:2339" mode="normal" result="shape"/></filter><filter id="f" color-interpolation-filters="sRGB" filterUnits="userSpaceOnUse" height="66.5367" width="66.5367" x="343.021" y="101.021"><feFlood flood-opacity="0" result="BackgroundImageFix"/><feColorMatrix in="SourceAlpha" result="hardAlpha" type="matrix" values="0 0 0 0 0 0 0 0 0 0 0 0 0 0 0 0 0 0 127 0"/><feOffset dy="5"/><feGaussianBlur stdDeviation="10"/><feComposite in2="hardAlpha" operator="out"/><feColorMatrix type="matrix" values="0 0 0 0 0 0 0 0 0 0 0 0 0 0 0 0 0 0 0.1 0"/><feBlend in2="BackgroundImageFix" mode="normal" result="effect1_dropShadow_1349:2339"/><feBlend in="SourceGraphic" in2="effect1_dropShadow_1349:2339" mode="normal" result="shape"/></filter><filter id="g" color-interpolation-filters="sRGB" filterUnits="userSpaceOnUse" height="73.8644" width="73.8644" x="231.304" y="3.30377"><feFlood flood-opacity="0" result="BackgroundImageFix"/><feColorMatrix in="SourceAlpha" result="hardAlpha" type="matrix" values="0 0 0 0 0 0 0 0 0 0 0 0 0 0 0 0 0 0 127 0"/><feOffset dy="5"/><feGaussianBlur stdDeviation="10"/><feComposite in2="hardAlpha" operator="out"/><feColorMatrix type="matrix" values="0 0 0 0 0 0 0 0 0 0 0 0 0 0 0 0 0 0 0.1 0"/><feBlend in2="BackgroundImageFix" mode="normal" result="effect1_dropShadow_1349:2339"/><feBlend in="SourceGraphic" in2="effect1_dropShadow_1349:2339" mode="normal" result="shape"/></filter><filter id="h" color-interpolation-filters="sRGB" filterUnits="userSpaceOnUse" height="66.5367" width="66.5367" x="235.021" y="7.02057"><feFlood flood-opacity="0" result="BackgroundImageFix"/><feColorMatrix in="SourceAlpha" result="hardAlpha" type="matrix" values="0 0 0 0 0 0 0 0 0 0 0 0 0 0 0 0 0 0 127 0"/><feOffset dy="5"/><feGaussianBlur stdDeviation="10"/><feComposite in2="hardAlpha" operator="out"/><feColorMatrix type="matrix" values="0 0 0 0 0 0 0 0 0 0 0 0 0 0 0 0 0 0 0.1 0"/><feBlend in2="BackgroundImageFix" mode="normal" result="effect1_dropShadow_1349:2339"/><feBlend in="SourceGraphic" in2="effect1_dropShadow_1349:2339" mode="normal" result="shape"/></filter><filter id="i" color-interpolation-filters="sRGB" filterUnits="userSpaceOnUse" height="73.8644" width="73.8644" x="106.304" y=".303772"><feFlood flood-opacity="0" result="BackgroundImageFix"/><feColorMatrix in="SourceAlpha" result="hardAlpha" type="matrix" values="0 0 0 0 0 0 0 0 0 0 0 0 0 0 0 0 0 0 127 0"/><feOffset dy="5"/><feGaussianBlur stdDeviation="10"/><feComposite in2="hardAlpha" operator="out"/><feColorMatrix type="matrix" values="0 0 0 0 0 0 0 0 0 0 0 0 0 0 0 0 0 0 0.1 0"/><feBlend in2="BackgroundImageFix" mode="normal" result="effect1_dropShadow_1349:2339"/><feBlend in="SourceGraphic" in2="effect1_dropShadow_1349:2339" mode="normal" result="shape"/></filter><filter id="j" color-interpolation-filters="sRGB" filterUnits="userSpaceOnUse" height="66.5367" width="66.5367" x="110.021" y="4.02057"><feFlood flood-opacity="0" result="BackgroundImageFix"/><feColorMatrix in="SourceAlpha" result="hardAlpha" type="matrix" values="0 0 0 0 0 0 0 0 0 0 0 0 0 0 0 0 0 0 127 0"/><feOffset dy="5"/><feGaussianBlur stdDeviation="10"/><feComposite in2="hardAlpha" operator="out"/><feColorMatrix type="matrix" values="0 0 0 0 0 0 0 0 0 0 0 0 0 0 0 0 0 0 0.1 0"/><feBlend in2="BackgroundImageFix" mode="normal" result="effect1_dropShadow_1349:2339"/><feBlend in="SourceGraphic" in2="effect1_dropShadow_1349:2339" mode="normal" result="shape"/></filter><filter id="k" color-interpolation-filters="sRGB" filterUnits="userSpaceOnUse" height="73.8644" width="73.8644" x="47.3036" y="37.3038"><feFlood flood-opacity="0" result="BackgroundImageFix"/><feColorMatrix in="SourceAlpha" result="hardAlpha" type="matrix" values="0 0 0 0 0 0 0 0 0 0 0 0 0 0 0 0 0 0 127 0"/><feOffset dy="5"/><feGaussianBlur stdDeviation="10"/><feComposite in2="hardAlpha" operator="out"/><feColorMatrix type="matrix" values="0 0 0 0 0 0 0 0 0 0 0 0 0 0 0 0 0 0 0.1 0"/><feBlend in2="BackgroundImageFix" mode="normal" result="effect1_dropShadow_1349:2339"/><feBlend in="SourceGraphic" in2="effect1_dropShadow_1349:2339" mode="normal" result="shape"/></filter><filter id="l" color-interpolation-filters="sRGB" filterUnits="userSpaceOnUse" height="66.5367" width="66.5367" x="51.0204" y="41.0206"><feFlood flood-opacity="0" result="BackgroundImageFix"/><feColorMatrix in="SourceAlpha" result="hardAlpha" type="matrix" values="0 0 0 0 0 0 0 0 0 0 0 0 0 0 0 0 0 0 127 0"/><feOffset dy="5"/><feGaussianBlur stdDeviation="10"/><feComposite in2="hardAlpha" operator="out"/><feColorMatrix type="matrix" values="0 0 0 0 0 0 0 0 0 0 0 0 0 0 0 0 0 0 0.1 0"/><feBlend in2="BackgroundImageFix" mode="normal" result="effect1_dropShadow_1349:2339"/><feBlend in="SourceGraphic" in2="effect1_dropShadow_1349:2339" mode="normal" result="shape"/></filter><path d="m335.5 129.739v49" stroke="#d0cce8" stroke-dasharray="4 6" stroke-linecap="round"/><path d="m335.705 128.734h19.932" stroke="#d0cce8" stroke-dasharray="4 6" stroke-linecap="round"/><g filter="url(#a)"><circle cx="37.2359" cy="129.236" fill="#1c0d82" fill-opacity=".2" r="16.9322" shape-rendering="crispEdges"/></g><circle cx="37.2359" cy="129.236" fill="#1c0d82" fill-opacity=".1" r="20.236"/><g filter="url(#b)"><circle cx="37.2889" cy="129.289" fill="#1c0d82" r="13.2684"/></g><path d="m33.8749 127.383-1.7526 1.82c-.7188.747-1.1225 1.76-1.1225 2.816s.4037 2.068 1.1225 2.815c.7187.747 1.6936 1.166 2.71 1.166 1.0165 0 1.9913-.419 2.7101-1.166l2.3351-2.427c.4334-.451.7565-1.002.9422-1.609s.2285-1.251.1249-1.879-.3506-1.22-.7204-1.728c-.3697-.508-.8513-.916-1.4044-1.191l-.7486.778c-.076.079-.1421.167-.1967.264.4273.127.8152.369 1.1253.7.31.331.5316.74.6427 1.187.111.448.1078.917-.0093 1.363-.1172.445-.3443.851-.6588 1.178l-2.3339 2.426c-.4794.498-1.1296.777-1.8075.777-.678 0-1.3282-.279-1.8076-.777s-.7487-1.174-.7487-1.878.2693-1.38.7487-1.878l1.013-1.051c-.1429-.556-.1981-1.133-.1635-1.708z" fill="#fff"/><path d="m36.122 125.233c-.4334.405-.7565.902-.9422 1.448-.1857.547-.2285 1.127-.1249 1.691.1036.565.3507 1.099.7204 1.556s.8513.825 1.4044 1.072l.99-.927c-.4331-.109-.828-.322-1.145-.618-.317-.297-.545-.666-.661-1.071s-.1159-.832.0002-1.237.3441-.774.6612-1.071l2.3339-2.183c.4794-.448 1.1296-.7 1.8075-.7.678 0 1.3282.252 1.8076.7s.7487 1.056.7487 1.69-.2693 1.242-.7487 1.69l-1.013.946c.1431.502.198 1.022.1635 1.538l1.7526-1.639c.7188-.672 1.1226-1.584 1.1226-2.534 0-.951-.4038-1.862-1.1226-2.534-.7187-.672-1.6936-1.05-2.71-1.05-1.0165 0-1.9913.378-2.7101 1.05z" fill="#fff"/><g filter="url(#c)"><circle cx="328.236" cy="69.236" fill="#1c0d82" fill-opacity=".2" r="16.9322" shape-rendering="crispEdges"/></g><circle cx="328.236" cy="69.236" fill="#1c0d82" fill-opacity=".1" r="20.236"/><g filter="url(#d)"><circle cx="328.289" cy="69.2889" fill="#1c0d82" r="13.2684"/></g><path d="m324.875 67.3827-1.752 1.8207c-.719.7466-1.123 1.7593-1.123 2.8152 0 1.056.404 2.0686 1.123 2.8153.719.7466 1.693 1.1661 2.71 1.1661 1.016 0 1.991-.4195 2.71-1.1661l2.335-2.4271c.433-.4503.757-1.0021.942-1.6089.186-.6069.229-1.2512.125-1.8788-.104-.6277-.351-1.2203-.72-1.7282-.37-.508-.852-.9163-1.405-1.1909l-.748.7776c-.076.0791-.142.1678-.197.2641.427.1276.815.3689 1.125.6999.31.3311.532.7405.643 1.1877.111.4473.108.9169-.009 1.3625-.118.4456-.345.8517-.659 1.1781l-2.334 2.4258c-.479.498-1.13.7778-1.808.7778-.677 0-1.328-.2798-1.807-.7778s-.749-1.1734-.749-1.8777.27-1.3797.749-1.8777l1.013-1.051c-.143-.5564-.198-1.1332-.164-1.7079z" fill="#fff"/><path d="m327.122 65.2331c-.433.4054-.756.902-.942 1.4483-.185.5462-.228 1.1262-.125 1.6911.104.5649.351 1.0984.721 1.5556.369.4572.851.8248 1.404 1.0719l.99-.9269c-.433-.1086-.828-.3219-1.145-.6185-.317-.2965-.545-.6659-.661-1.0709-.116-.4051-.116-.8315 0-1.2365s.345-.7743.662-1.0708l2.333-2.1835c.48-.4482 1.13-.7001 1.808-.7001s1.328.2519 1.808.7001c.479.4483.748 1.0563.748 1.6902s-.269 1.2419-.748 1.6902l-1.013.946c.143.5017.198 1.0213.163 1.5373l1.753-1.6388c.718-.6721 1.122-1.5836 1.122-2.5341s-.404-1.862-1.122-2.5341c-.719-.672-1.694-1.0496-2.71-1.0496-1.017 0-1.992.3776-2.71 1.0496z" fill="#fff"/><g filter="url(#e)"><circle cx="376.236" cy="129.236" fill="#1c0d82" fill-opacity=".2" r="16.9322" shape-rendering="crispEdges"/></g><circle cx="376.236" cy="129.236" fill="#1c0d82" fill-opacity=".1" r="20.236"/><g filter="url(#f)"><circle cx="376.289" cy="129.289" fill="#1c0d82" r="13.2684"/></g><path d="m372.875 127.383-1.753 1.82c-.718.747-1.122 1.76-1.122 2.816s.404 2.068 1.122 2.815c.719.747 1.694 1.166 2.71 1.166 1.017 0 1.992-.419 2.71-1.166l2.336-2.427c.433-.451.756-1.002.942-1.609.185-.607.228-1.251.125-1.879-.104-.628-.351-1.22-.721-1.728-.369-.508-.851-.916-1.404-1.191l-.749.778c-.076.079-.142.167-.196.264.427.127.815.369 1.125.7s.531.74.642 1.187c.112.448.108.917-.009 1.363-.117.445-.344.851-.659 1.178l-2.333 2.426c-.48.498-1.13.777-1.808.777s-1.328-.279-1.808-.777c-.479-.498-.748-1.174-.748-1.878s.269-1.38.748-1.878l1.013-1.051c-.143-.556-.198-1.133-.163-1.708z" fill="#fff"/><path d="m375.122 125.233c-.433.405-.757.902-.942 1.448-.186.547-.229 1.127-.125 1.691.104.565.351 1.099.72 1.556.37.457.852.825 1.405 1.072l.99-.927c-.433-.109-.828-.322-1.145-.618-.317-.297-.545-.666-.661-1.071s-.116-.832 0-1.237.344-.774.661-1.071l2.334-2.183c.479-.448 1.13-.7 1.808-.7.677 0 1.328.252 1.807.7s.749 1.056.749 1.69-.27 1.242-.749 1.69l-1.013.946c.143.502.198 1.022.164 1.538l1.752-1.639c.719-.672 1.123-1.584 1.123-2.534 0-.951-.404-1.862-1.123-2.534s-1.693-1.05-2.71-1.05c-1.016 0-1.991.378-2.71 1.05z" fill="#fff"/><g filter="url(#g)"><circle cx="268.236" cy="35.236" fill="#1c0d82" fill-opacity=".2" r="16.9322" shape-rendering="crispEdges"/></g><circle cx="268.236" cy="35.236" fill="#1c0d82" fill-opacity=".1" r="20.236"/><g filter="url(#h)"><circle cx="268.289" cy="35.2889" fill="#1c0d82" r="13.2684"/></g><path d="m264.875 33.3827-1.752 1.8207c-.719.7466-1.123 1.7593-1.123 2.8152 0 1.056.404 2.0686 1.123 2.8153.719.7466 1.693 1.1661 2.71 1.1661 1.016 0 1.991-.4195 2.71-1.1661l2.335-2.4271c.433-.4503.757-1.0021.942-1.6089.186-.6069.229-1.2512.125-1.8788-.104-.6277-.351-1.2203-.72-1.7282-.37-.508-.852-.9163-1.405-1.1909l-.748.7776c-.076.0791-.142.1678-.197.2641.427.1276.815.3689 1.125.6999.31.3311.532.7405.643 1.1877.111.4473.108.9169-.009 1.3625-.118.4456-.345.8517-.659 1.1781l-2.334 2.4258c-.479.498-1.13.7778-1.808.7778-.677 0-1.328-.2798-1.807-.7778s-.749-1.1734-.749-1.8777.27-1.3797.749-1.8777l1.013-1.051c-.143-.5564-.198-1.1332-.164-1.7079z" fill="#fff"/><path d="m267.122 31.2331c-.433.4054-.756.902-.942 1.4483-.185.5462-.228 1.1262-.125 1.6911.104.5649.351 1.0984.721 1.5556.369.4572.851.8248 1.404 1.0719l.99-.9269c-.433-.1086-.828-.3219-1.145-.6185-.317-.2965-.545-.6659-.661-1.0709-.116-.4051-.116-.8315 0-1.2365s.345-.7743.662-1.0708l2.333-2.1835c.48-.4482 1.13-.7001 1.808-.7001s1.328.2519 1.808.7001c.479.4483.748 1.0563.748 1.6902s-.269 1.2419-.748 1.6902l-1.013.946c.143.5017.198 1.0213.163 1.5373l1.753-1.6388c.718-.6721 1.122-1.5836 1.122-2.5341s-.404-1.862-1.122-2.5341c-.719-.672-1.694-1.0496-2.71-1.0496-1.017 0-1.992.3776-2.71 1.0496z" fill="#fff"/><g filter="url(#i)"><circle cx="143.236" cy="32.236" fill="#1c0d82" fill-opacity=".2" r="16.9322" shape-rendering="crispEdges"/></g><circle cx="143.236" cy="32.236" fill="#1c0d82" fill-opacity=".1" r="20.236"/><g filter="url(#j)"><circle cx="143.289" cy="32.2889" fill="#1c0d82" r="13.2684"/></g><path d="m139.875 30.3827-1.752 1.8207c-.719.7466-1.123 1.7593-1.123 2.8152 0 1.056.404 2.0686 1.123 2.8153.718.7466 1.693 1.1661 2.71 1.1661 1.016 0 1.991-.4195 2.71-1.1661l2.335-2.4271c.433-.4503.756-1.0021.942-1.6089.186-.6069.228-1.2512.125-1.8788-.104-.6277-.351-1.2203-.721-1.7282-.369-.508-.851-.9163-1.404-1.1909l-.749.7776c-.076.0791-.142.1678-.196.2641.427.1276.815.3689 1.125.6999.31.3311.532.7405.643 1.1877.111.4473.108.9169-.01 1.3625-.117.4456-.344.8517-.658 1.1781l-2.334 2.4258c-.48.498-1.13.7778-1.808.7778s-1.328-.2798-1.807-.7778c-.48-.498-.749-1.1734-.749-1.8777s.269-1.3797.749-1.8777l1.013-1.051c-.143-.5564-.198-1.1332-.164-1.7079z" fill="#fff"/><path d="m142.122 28.2331c-.433.4054-.756.902-.942 1.4483-.186.5462-.228 1.1262-.125 1.6911.104.5649.351 1.0984.721 1.5556.369.4572.851.8248 1.404 1.0719l.99-.9269c-.433-.1086-.828-.3219-1.145-.6185-.317-.2965-.545-.6659-.661-1.0709-.116-.4051-.116-.8315 0-1.2365s.344-.7743.661-1.0708l2.334-2.1835c.48-.4482 1.13-.7001 1.808-.7001s1.328.2519 1.807.7001c.48.4483.749 1.0563.749 1.6902s-.269 1.2419-.749 1.6902l-1.013.946c.143.5017.198 1.0213.164 1.5373l1.752-1.6388c.719-.6721 1.123-1.5836 1.123-2.5341s-.404-1.862-1.123-2.5341c-.718-.672-1.693-1.0496-2.71-1.0496-1.016 0-1.991.3776-2.71 1.0496z" fill="#fff"/><g filter="url(#k)"><circle cx="84.2358" cy="69.236" fill="#1c0d82" fill-opacity=".2" r="16.9322" shape-rendering="crispEdges"/></g><circle cx="84.2358" cy="69.236" fill="#1c0d82" fill-opacity=".1" r="20.236"/><g filter="url(#l)"><circle cx="84.2888" cy="69.2889" fill="#1c0d82" r="13.2684"/></g><path d="m80.8749 67.3827-1.7526 1.8207c-.7188.7466-1.1225 1.7593-1.1225 2.8152 0 1.056.4037 2.0686 1.1225 2.8153.7187.7466 1.6936 1.1661 2.71 1.1661 1.0165 0 1.9913-.4195 2.7101-1.1661l2.3351-2.4271c.4334-.4503.7565-1.0021.9422-1.6089.1857-.6069.2285-1.2512.1249-1.8788-.1036-.6277-.3506-1.2203-.7204-1.7282-.3697-.508-.8513-.9163-1.4044-1.1909l-.7486.7776c-.076.0791-.1421.1678-.1967.2641.4273.1276.8152.3689 1.1253.6999.31.3311.5316.7405.6427 1.1877.111.4473.1078.9169-.0093 1.3625-.1172.4456-.3443.8517-.6588 1.1781l-2.3339 2.4258c-.4794.498-1.1296.7778-1.8075.7778-.678 0-1.3282-.2798-1.8076-.7778s-.7487-1.1734-.7487-1.8777.2693-1.3797.7487-1.8777l1.013-1.051c-.1429-.5564-.1981-1.1332-.1635-1.7079z" fill="#fff"/><path d="m83.122 65.2331c-.4334.4054-.7565.902-.9422 1.4483-.1857.5462-.2285 1.1262-.1249 1.6911s.3507 1.0984.7204 1.5556.8513.8248 1.4044 1.0719l.99-.9269c-.4331-.1086-.828-.3219-1.145-.6185-.317-.2965-.545-.6659-.661-1.0709-.116-.4051-.1159-.8315.0002-1.2365s.3441-.7743.6612-1.0708l2.3339-2.1835c.4794-.4482 1.1296-.7001 1.8075-.7001.678 0 1.3282.2519 1.8076.7001.4794.4483.7487 1.0563.7487 1.6902s-.2693 1.2419-.7487 1.6902l-1.013.946c.1431.5017.198 1.0213.1635 1.5373l1.7526-1.6388c.7188-.6721 1.1226-1.5836 1.1226-2.5341s-.4038-1.862-1.1226-2.5341c-.7187-.672-1.6936-1.0496-2.71-1.0496-1.0165 0-1.9913.3776-2.7101 1.0496z" fill="#fff"/><g stroke="#d0cce8" stroke-dasharray="4 6" stroke-linecap="round"><path d="m77.5001 129.739v49"/><path d="m56.5766 128.734h19.9317"/><path d="m282.5 69.5v109"/><path d="m285.5 68.7339h19.932"/><path d="m122.5 69.5v109"/><path d="m101.484 68.7339h19.931"/><path d="m224.5 35.5v143"/><path d="m224.5 34.7339h19.932"/><path d="m182.501 32.5v143"/><path d="m161.182 31.7339h19.931"/></g></svg>